<svg width="69" height="66" viewBox="0 0 69 66" fill="none" xmlns="http://www.w3.org/2000/svg">
<path d="M48.875 51.0625C48.0833 54.4375 46.2917 57.3125 43.5 59.6875C38.7083 63.8542 33.0833 65.9375 26.625 65.9375C20.6667 65.9375 15.4792 65 11.0625 63.125C3.6875 60 0 54.7708 0 47.4375C0 40.4791 3.4375 34.9791 10.3125 30.9375C15.0625 28.1458 20.2917 26.75 26 26.75C30.75 26.75 36.0833 27.6875 42 29.5625C40.125 25.0625 38.2917 21.6667 36.5 19.375C33.6667 15.75 30.4792 13.9375 26.9375 13.9375C22.0625 13.9375 17.4792 15.6875 13.1875 19.1875C12.2708 19.6875 11.5417 19.9375 11 19.9375C10.1667 19.9375 9.75 19.5417 9.75 18.75C9.75 18.125 10.2083 17.2292 11.125 16.0625C11.2083 15.9375 11.3542 15.7292 11.5625 15.4375C11.5625 15.4375 11.6042 15.3958 11.6875 15.3125C11.7708 15.1875 11.9167 14.9792 12.125 14.6875C13.9167 12.0625 15.3125 10.75 16.3125 10.75C16.7708 10.75 17.25 11 17.75 11.5C18.0833 11.875 18.4167 12.0625 18.75 12.0625C19.75 12.0625 21.375 11.8542 23.625 11.4375C26 10.9792 27.8333 10.75 29.125 10.75C34.875 10.75 40.4583 13.4375 45.875 18.8125C49.0417 21.9375 52.0208 26.5625 54.8125 32.6875C59.6458 43.2291 63.8542 52.6042 67.4375 60.8125C67.9792 61.6042 68.25 62.4167 68.25 63.25C68.25 64.0833 67.8958 64.5 67.1875 64.5H59.625C58.625 64.5 57.9583 64.0833 57.625 63.25C54.2083 56.5833 51.3333 50.7291 49 45.6875C46.0833 39.3541 43.0625 35.2291 39.9375 33.3125C36.3125 31.0625 32.2083 29.9375 27.625 29.9375C23.0417 29.9375 19.2292 31.4583 16.1875 34.5C13.0625 37.7083 11.5 41.6041 11.5 46.1875C11.5 50.5208 12.75 54.25 15.25 57.375C18.125 60.9583 21.9792 62.75 26.8125 62.75C32.1458 62.75 36.8333 61.1042 40.875 57.8125C43.0833 56.0208 44.8542 53.5625 46.1875 50.4375C46.3542 49.7291 46.7708 49.375 47.4375 49.375C48.3542 49.375 48.8333 49.9375 48.875 51.0625ZM20.978 5.55312C22.9228 4.68646 26.3343 3.56901 31.2124 2.20076C35.8894 0.867686 38.5461 0.156737 39.1824 0.0679134C40.6633 -0.106923 41.8959 0.0558151 42.8801 0.556128C43.8315 1.03976 44.3819 1.68034 44.5314 2.47785C44.6624 3.33463 44.3811 4.05057 43.6875 4.62566C43.1738 5.05165 42.6059 5.34703 41.9838 5.51181C40.831 5.85342 35.8197 6.43249 26.95 7.24902C25.8129 7.35815 25.0104 7.4312 24.5424 7.46818C22.9774 7.66894 21.9324 7.6359 21.4075 7.36907C20.9154 7.11891 20.6337 6.80395 20.5625 6.42418C20.5099 5.98514 20.6484 5.69479 20.978 5.55312Z" fill="#657E66"/>
</svg>
