<svg width="292" height="102" viewBox="0 0 292 102" fill="none" xmlns="http://www.w3.org/2000/svg">
<path d="M127.25 51.0625C126.458 54.4375 124.667 57.3125 121.875 59.6875C117.083 63.8542 111.458 65.9375 105 65.9375C99.0417 65.9375 93.8542 65 89.4375 63.125C82.0625 60 78.375 54.7708 78.375 47.4375C78.375 40.4791 81.8125 34.9791 88.6875 30.9375C93.4375 28.1458 98.6667 26.75 104.375 26.75C109.125 26.75 114.458 27.6875 120.375 29.5625C118.5 25.0625 116.667 21.6667 114.875 19.375C112.042 15.75 108.854 13.9375 105.312 13.9375C100.438 13.9375 95.8542 15.6875 91.5625 19.1875C90.6458 19.6875 89.9167 19.9375 89.375 19.9375C88.5417 19.9375 88.125 19.5417 88.125 18.75C88.125 18.125 88.5833 17.2292 89.5 16.0625C89.5833 15.9375 89.7292 15.7292 89.9375 15.4375C89.9375 15.4375 89.9792 15.3958 90.0625 15.3125C90.1458 15.1875 90.2917 14.9792 90.5 14.6875C92.2917 12.0625 93.6875 10.75 94.6875 10.75C95.1458 10.75 95.625 11 96.125 11.5C96.4583 11.875 96.7917 12.0625 97.125 12.0625C98.125 12.0625 99.75 11.8542 102 11.4375C104.375 10.9792 106.208 10.75 107.5 10.75C113.25 10.75 118.833 13.4375 124.25 18.8125C127.417 21.9375 130.396 26.5625 133.188 32.6875C138.021 43.2291 142.229 52.6042 145.812 60.8125C146.354 61.6042 146.625 62.4167 146.625 63.25C146.625 64.0833 146.271 64.5 145.562 64.5H138C137 64.5 136.333 64.0833 136 63.25C132.583 56.5833 129.708 50.7291 127.375 45.6875C124.458 39.3541 121.438 35.2291 118.312 33.3125C114.688 31.0625 110.583 29.9375 106 29.9375C101.417 29.9375 97.6042 31.4583 94.5625 34.5C91.4375 37.7083 89.875 41.6041 89.875 46.1875C89.875 50.5208 91.125 54.25 93.625 57.375C96.5 60.9583 100.354 62.75 105.188 62.75C110.521 62.75 115.208 61.1042 119.25 57.8125C121.458 56.0208 123.229 53.5625 124.562 50.4375C124.729 49.7291 125.146 49.375 125.812 49.375C126.729 49.375 127.208 49.9375 127.25 51.0625Z" fill="white"/>
<path d="M272.375 51.0625C271.583 54.4375 269.792 57.3125 267 59.6875C262.208 63.8542 256.583 65.9375 250.125 65.9375C244.167 65.9375 238.979 65 234.562 63.125C227.188 60 223.5 54.7708 223.5 47.4375C223.5 40.4791 226.938 34.9791 233.812 30.9375C238.562 28.1458 243.792 26.75 249.5 26.75C254.25 26.75 259.583 27.6875 265.5 29.5625C263.625 25.0625 261.792 21.6667 260 19.375C257.167 15.75 253.979 13.9375 250.438 13.9375C245.562 13.9375 240.979 15.6875 236.688 19.1875C235.771 19.6875 235.042 19.9375 234.5 19.9375C233.667 19.9375 233.25 19.5417 233.25 18.75C233.25 18.125 233.708 17.2292 234.625 16.0625C234.708 15.9375 234.854 15.7292 235.062 15.4375C235.062 15.4375 235.104 15.3958 235.188 15.3125C235.271 15.1875 235.417 14.9792 235.625 14.6875C237.417 12.0625 238.812 10.75 239.812 10.75C240.271 10.75 240.75 11 241.25 11.5C241.583 11.875 241.917 12.0625 242.25 12.0625C243.25 12.0625 244.875 11.8542 247.125 11.4375C249.5 10.9792 251.333 10.75 252.625 10.75C258.375 10.75 263.958 13.4375 269.375 18.8125C272.542 21.9375 275.521 26.5625 278.312 32.6875C283.146 43.2291 287.354 52.6042 290.938 60.8125C291.479 61.6042 291.75 62.4167 291.75 63.25C291.75 64.0833 291.396 64.5 290.688 64.5H283.125C282.125 64.5 281.458 64.0833 281.125 63.25C277.708 56.5833 274.833 50.7291 272.5 45.6875C269.583 39.3541 266.562 35.2291 263.438 33.3125C259.812 31.0625 255.708 29.9375 251.125 29.9375C246.542 29.9375 242.729 31.4583 239.688 34.5C236.562 37.7083 235 41.6041 235 46.1875C235 50.5208 236.25 54.25 238.75 57.375C241.625 60.9583 245.479 62.75 250.312 62.75C255.646 62.75 260.333 61.1042 264.375 57.8125C266.583 56.0208 268.354 53.5625 269.688 50.4375C269.854 49.7291 270.271 49.375 270.938 49.375C271.854 49.375 272.333 49.9375 272.375 51.0625ZM244.478 5.55312C246.423 4.68646 249.834 3.56901 254.712 2.20076C259.389 0.867686 262.046 0.156737 262.682 0.0679134C264.163 -0.106923 265.396 0.0558151 266.38 0.556128C267.331 1.03976 267.882 1.68034 268.031 2.47785C268.162 3.33463 267.881 4.05057 267.188 4.62566C266.674 5.05165 266.106 5.34703 265.484 5.51181C264.331 5.85342 259.32 6.43249 250.45 7.24902C249.313 7.35815 248.51 7.4312 248.042 7.46818C246.477 7.66894 245.432 7.6359 244.907 7.36907C244.415 7.11891 244.134 6.80395 244.062 6.42418C244.01 5.98514 244.148 5.69479 244.478 5.55312Z" fill="white"/>
<path d="M198.812 12.125C198.812 11.4167 199.312 10.9583 200.312 10.75C200.354 10.75 200.521 10.7083 200.812 10.625H216.562C218.188 10.625 219 11.125 219 12.125C219 12.9167 217.875 13.7083 215.625 14.5C213.625 15.1667 211.604 17.3958 209.562 21.1875C209.312 21.6042 209 22.125 208.625 22.75C208.5 22.9583 205.875 27.9583 200.75 37.75C183.042 71.5833 173.042 90.2917 170.75 93.875C167.542 98.875 163.167 101.375 157.625 101.375C156.344 101.375 155.156 101.229 154.063 100.936C152.969 100.643 153.354 96.323 154.063 97.1188C154.772 97.9146 155.856 98.3125 157.312 98.3125C160.229 98.3125 162.854 97.3542 165.188 95.4375C166.396 94.4792 167.479 93.125 168.438 91.375C175.312 78.9583 179.75 70.5625 181.75 66.1875C172.083 48.8125 164.708 35.8542 159.625 27.3125C158.25 25.0208 157.146 23.125 156.312 21.625C154.354 18.0833 152.5 15.5833 150.75 14.125C149.917 13.4167 149.5 12.8542 149.5 12.4375C149.5 11.4375 150.146 10.8333 151.438 10.625H169.875C171.208 10.625 171.875 11.0833 171.875 12C171.875 12.7917 171.292 13.3542 170.125 13.6875C168.167 14.2708 167.188 15.5208 167.188 17.4375C167.188 18.8125 167.854 20.6458 169.188 22.9375C169.438 23.4375 169.854 24.1875 170.438 25.1875C178.146 38.9792 183.958 48.7083 187.875 54.375C190.792 49.2917 193.812 43.5833 196.938 37.25C199.771 31.625 201.312 28.5625 201.562 28.0625C203.604 24.1458 204.729 21.7292 204.938 20.8125C205.021 20.3125 205.062 19.8125 205.062 19.3125C205.062 17.4792 204.5 16 203.375 14.875C202.583 14.0833 201.521 13.6458 200.188 13.5625C199.271 13.2292 198.812 12.75 198.812 12.125Z" fill="white"/>
<path d="M1.9375 10.75H14.125C16.4167 10.75 17.5625 11.8125 17.5625 13.9375V21.25C17.8125 21.0417 18.1458 20.7292 18.5625 20.3125C21.3125 17.7292 23.4375 15.9583 24.9375 15C30.3125 11.5833 35.6667 9.875 41 9.875C47.0417 9.875 52.2083 11.625 56.5 15.125C61.5 19.1667 64 24.6042 64 31.4375C64 35.9792 64 31.4375 64 46C64 62 64 46 64 62C64 63.5 64.3105 63.0033 64 63.5C63.0625 65 58.5625 65 58.0625 65C57.5625 65 55.5625 65 52.5625 63.5C51.6681 63.0528 52.5625 64.5 52.5625 59C52.5625 51 52.5625 59 52.5625 51C52.375 35.5625 52.375 40.0208 52.375 35.5625C52.375 27.1875 49.7292 21.1875 44.4375 17.5625C42.0625 15.9375 39.1042 15.125 35.5625 15.125C31.8125 15.125 28.2917 16.4792 25 19.1875C20.0417 23.2708 17.5625 28.4792 17.5625 34.8125V53C17.5625 57.0417 19.1667 59.8333 22.375 61.375C23.1667 61.75 23.5625 62.2917 23.5625 63C23.5625 64 22.875 64.5 21.5 64.5H2.4375C1.77083 64.3333 1.4375 63.9167 1.4375 63.25C1.4375 62.5 1.95833 61.7917 3 61.125C4.45833 60.125 5.52083 59.125 6.1875 58.125C6.60417 57.0417 6.8125 55.625 6.8125 53.875V20.5C6.8125 17.0833 5.0625 14.9375 1.5625 14.0625C0.520833 13.6042 0 13.0625 0 12.4375C0 11.3125 0.645833 10.75 1.9375 10.75Z" fill="white"/>
</svg>
